# xmcd
#
# Track frame offsets:
#	150
#	15475
#	31167
#	48479
#	64355
#	77783
#	97500
#	113928
#	131467
#	150503
#	164837
#	177317
#	191221
#	205746
#	222599
#	223623
#	224511
#	225273
#
# Disc length: 3011 seconds
#
# Revision: 1
# Processed by: cddbd v1.5.2PL0 Copyright (c) Steve Scherf et al.
# Submitted via: audiograbber 1.83.01
#
DISCID=fe0bc112
DTITLE=Various Artist - CDX Volume 592 (March 31, 2014)
DYEAR=2014
DGENRE=Country
TTITLE0=Scotty McCreery - Feelin' It 
TTITLE1=Cole Swindell - Hope You Get Lonely Tonight
TTITLE2=Luke Bryan - Play It Again 
TTITLE3=Brothers Osborne - Rum
TTITLE4=Frankie Ballard - Sunshine and Whiskey [Radio Edit]
TTITLE5=Zane Williams - Little Too Late 
TTITLE6=Austin Webb - Raise 'Em Up
TTITLE7=Tim Sweeney - Somebody To Love
TTITLE8=Jamie O'Neal - Wide Awake
TTITLE9=Allison Veltz - Bright Side 
TTITLE10=Johnny Cash (with June Carter Cash) - Baby Ride Easy
TTITLE11=Johnny Cash - Out Among The Stars 
TTITLE12=Johnny Cash - She Used To Love Me A Lot
TTITLE13=Johnny Orr Band - We'll Get By (The Autism Song)
TTITLE14=Eileen Carey - Liner - My New Single
TTITLE15=Eileen Carey - Liner - Super Country
TTITLE16=Eileen Carey - Liner - Best In Country Music
TTITLE17=Eileen Carey - Liner - Today's Best Country
EXTD=
EXTT0=
EXTT1=
EXTT2=
EXTT3=
EXTT4=
EXTT5=
EXTT6=
EXTT7=
EXTT8=
EXTT9=
EXTT10=
EXTT11=
EXTT12=
EXTT13=
EXTT14=
EXTT15=
EXTT16=
EXTT17=
PLAYORDER=
